<?xml version="1.0" standalone="no"?>
<!DOCTYPE svg PUBLIC "-//W3C//DTD SVG 20010904//EN"
 "http://www.w3.org/TR/2001/REC-SVG-20010904/DTD/svg10.dtd">
<svg version="1.0" xmlns="http://www.w3.org/2000/svg"
 width="382.000000pt" height="415.366355pt" viewBox="0 0 382.000000 415.366355"
 preserveAspectRatio="xMidYMid meet">
<metadata>
Created by potrace 1.12, written by Peter Selinger 2001-2015
</metadata>
<g transform="translate(0.000000,416.835974) scale(0.100000,-0.100000)"
fill="#000000" stroke="none">
<path d="M1652 4119 c17 -94 53 -150 117 -184 92 -47 152 52 79 130 -24 26
-49 39 -93 50 -33 8 -72 24 -86 34 l-26 19 9 -49z"/>
<path d="M1148 4125 c-9 -16 -30 -40 -48 -53 -44 -33 -70 -80 -70 -128 0 -100
112 -100 149 -1 15 38 13 133 -3 177 l-13 35 -15 -30z"/>
<path d="M2136 4124 c-11 -8 -34 -14 -51 -14 -43 0 -75 -25 -75 -59 0 -89 119
-58 141 38 5 24 8 45 7 47 -2 1 -12 -4 -22 -12z"/>
<path d="M2213 4067 c15 -106 90 -197 162 -197 51 0 83 49 64 98 -18 46 -50
72 -118 93 -36 11 -77 27 -90 36 l-24 15 6 -45z"/>
<path d="M1938 3971 c5 -108 -14 -183 -66 -260 -35 -52 -37 -59 -40 -150 -3
-77 2 -126 27 -249 17 -84 31 -155 31 -158 0 -14 -27 16 -103 120 -121 161
-158 189 -375 277 -171 69 -249 118 -372 238 l-89 86 47 -90 c35 -69 64 -109
126 -171 89 -88 145 -121 266 -155 101 -28 184 -73 246 -135 57 -57 110 -144
121 -195 l6 -34 -41 37 c-60 54 -116 87 -207 121 -71 27 -93 31 -190 31 -90 1
-122 -3 -177 -22 -78 -27 -161 -79 -238 -151 l-55 -51 47 14 c26 8 75 30 110
49 160 89 337 93 489 11 65 -36 177 -155 222 -235 28 -50 77 -175 77 -196 0
-1 -405 -3 -900 -3 l-900 0 0 -570 0 -570 941 0 942 0 -6 -72 c-9 -117 -40
-201 -96 -259 -41 -42 -53 -49 -86 -49 -34 0 -45 7 -90 54 -67 72 -109 96
-166 96 -94 0 -234 -100 -257 -184 -20 -71 20 -142 93 -166 38 -13 85 1 85 25
0 15 -1 15 -16 1 -8 -9 -22 -16 -31 -16 -22 0 -93 74 -93 97 0 72 176 163 239
124 7 -5 34 -39 60 -77 29 -44 60 -76 84 -89 42 -22 42 -24 -6 -104 -42 -71
-117 -148 -164 -167 -37 -16 -156 -39 -273 -53 -36 -4 -50 -9 -32 -9 34 -2 37
-8 22 -44 -5 -13 -14 -43 -20 -67 -6 -24 -22 -54 -35 -67 -25 -25 -20 -33 8
-11 9 6 27 41 39 76 32 89 51 101 178 111 86 7 113 13 163 39 33 17 63 31 67
31 11 0 0 -161 -16 -216 -16 -61 -40 -84 -91 -91 -44 -6 -65 11 -65 52 0 34
19 55 51 55 23 1 24 2 7 11 -29 18 -70 -18 -74 -66 -5 -52 27 -85 81 -85 32 0
46 7 77 38 45 45 65 104 80 241 11 102 29 151 85 235 36 55 53 65 133 81 l32
7 0 -114 c0 -228 -44 -338 -137 -338 -20 0 -36 7 -42 17 -6 10 -11 13 -11 7 0
-18 35 -44 61 -44 57 0 123 70 150 158 7 23 17 42 24 42 18 0 98 -245 90 -279
-8 -36 -35 -61 -77 -71 l-33 -8 34 -1 c23 -1 43 6 58 21 13 12 26 18 30 14 13
-12 8 -148 -6 -188 -18 -53 -93 -152 -142 -188 -58 -41 -101 -40 -144 3 -86
86 -53 227 49 215 19 -2 32 0 30 4 -3 4 -25 8 -49 8 -35 0 -48 -5 -63 -25 -62
-79 -14 -240 77 -258 83 -17 197 70 263 202 28 55 33 77 37 164 l6 101 53 -71
c66 -90 128 -147 177 -163 50 -17 113 -7 139 21 12 13 14 17 4 10 -29 -22 -76
-30 -114 -20 -52 15 -106 69 -179 179 -73 108 -118 201 -166 340 -30 87 -33
106 -33 216 -1 118 0 121 27 154 16 18 44 65 64 104 19 39 37 73 39 75 2 3 17
-7 32 -21 15 -14 70 -50 122 -79 129 -71 152 -90 198 -162 51 -79 66 -134 58
-218 -20 -217 -186 -413 -265 -313 -12 15 -21 23 -21 18 1 -15 24 -40 48 -53
49 -26 129 25 193 124 23 36 45 65 50 65 4 0 16 -16 25 -36 9 -19 48 -63 86
-97 86 -77 99 -97 108 -166 l7 -56 2 55 c1 65 -5 76 -100 176 -90 96 -102 133
-93 286 8 146 -6 201 -77 294 -40 52 -48 68 -38 75 8 5 20 9 27 9 7 0 43 14
79 31 89 41 145 43 200 7 117 -77 135 -194 43 -272 -39 -32 -54 -33 -85 -1
-30 29 -34 18 -5 -13 33 -35 73 -29 119 17 89 89 62 220 -63 305 -65 46 -112
47 -234 6 -106 -35 -169 -38 -232 -9 -55 25 -81 49 -120 109 -29 45 -29 48
-18 98 l13 52 847 0 848 0 0 570 0 570 -846 0 -847 0 5 43 c12 99 91 247 184
342 162 166 400 197 601 79 24 -14 70 -34 101 -45 l57 -19 -50 46 c-134 122
-265 176 -425 175 -160 0 -288 -49 -389 -149 -29 -29 -56 -51 -59 -48 -15 16
-3 154 18 211 29 75 114 163 214 220 140 81 194 215 151 380 l-13 50 -1 -46
c-1 -64 -26 -139 -61 -187 -16 -23 -67 -65 -113 -96 -151 -100 -291 -274 -313
-392 -3 -19 -10 -36 -14 -39 -5 -3 -20 20 -34 51 -45 98 -67 185 -68 264 -1
78 6 102 67 210 43 77 26 196 -43 297 -4 8 -6 -25 -4 -76z m-730 -1514 c23
-15 48 -44 61 -69 19 -41 21 -60 21 -264 0 -243 -8 -280 -66 -321 -105 -73
-277 -50 -336 45 -22 36 -23 44 -23 278 0 240 0 241 25 278 15 24 44 47 75 63
43 21 61 24 127 20 62 -3 85 -9 116 -30z m615 4 c20 -12 46 -39 59 -59 22 -36
23 -44 23 -277 0 -271 -3 -283 -75 -331 -75 -50 -224 -43 -284 12 -60 56 -61
60 -64 294 -2 135 0 232 7 257 13 46 65 102 113 120 53 20 177 11 221 -16z
m-1217 -8 c46 -33 64 -79 64 -161 0 -88 -11 -117 -52 -142 -20 -12 -27 -20
-16 -20 9 0 28 -14 42 -31 25 -30 26 -34 26 -180 l0 -149 -84 0 -84 0 -4 150
c-2 120 -6 153 -18 160 -38 24 -40 15 -40 -150 l0 -160 -95 0 -95 0 0 356 0
356 163 -4 c149 -3 165 -5 193 -25z m1884 -43 l0 -70 -55 0 -55 0 0 -285 0
-285 -95 0 -95 0 0 285 0 285 -55 0 -55 0 0 70 0 70 205 0 205 0 0 -70z m480
0 l0 -70 -65 0 -65 0 0 -65 0 -65 60 0 60 0 0 -70 0 -70 -60 0 -60 0 0 -80 0
-80 70 0 70 0 0 -70 0 -70 -165 0 -165 0 0 355 0 355 160 0 160 0 0 -70z m549
45 c19 -11 43 -33 55 -48 20 -27 21 -40 21 -291 0 -356 8 -346 -270 -346
l-165 0 0 356 0 356 163 -4 c140 -3 167 -6 196 -23z"/>
<path d="M1055 2358 c-3 -7 -4 -117 -3 -243 3 -222 4 -230 23 -230 19 0 20 7
20 240 0 221 -1 240 -18 243 -9 2 -19 -3 -22 -10z"/>
<path d="M1675 2358 c-3 -7 -4 -117 -3 -243 3 -222 4 -230 23 -230 19 0 20 7
20 240 0 221 -1 240 -18 243 -9 2 -19 -3 -22 -10z"/>
<path d="M440 2280 c0 -82 6 -92 40 -70 11 7 15 27 15 70 0 43 -4 63 -15 70
-34 22 -40 12 -40 -70z"/>
<path d="M3350 2125 c0 -243 1 -250 40 -225 12 8 16 46 18 222 3 193 2 214
-14 225 -43 31 -44 25 -44 -222z"/>
<path d="M2850 3988 c-13 -5 -48 -6 -76 -2 -66 8 -107 -1 -144 -33 -39 -32
-43 -93 -8 -117 43 -30 125 -11 181 42 29 27 83 110 76 116 -2 2 -15 -1 -29
-6z"/>
<path d="M1260 3904 c0 -22 -4 -44 -10 -50 -17 -17 -24 -101 -10 -133 24 -60
105 -57 122 4 16 60 -11 131 -71 189 l-31 30 0 -40z"/>
<path d="M2114 3857 c14 -84 84 -167 142 -167 32 0 67 47 59 80 -11 44 -68 90
-112 90 -10 0 -36 9 -57 20 l-38 19 6 -42z"/>
<path d="M1550 3862 c0 -14 42 -87 64 -110 51 -57 147 -80 179 -44 24 27 21
75 -5 99 -38 34 -64 43 -127 43 -33 0 -71 4 -85 10 -14 5 -26 6 -26 2z"/>
<path d="M1454 3774 c2 -5 -6 -34 -20 -63 -33 -68 -24 -104 26 -109 42 -4 60
17 60 70 0 30 -7 46 -36 76 -20 20 -33 32 -30 26z"/>
<path d="M781 3750 c-24 -11 -57 -20 -74 -20 l-30 0 22 -24 c27 -29 105 -72
148 -81 48 -10 108 10 121 41 39 83 -75 134 -187 84z"/>
<path d="M2675 3741 c-73 -7 -85 -14 -85 -50 0 -59 95 -39 133 27 10 17 17 31
15 30 -1 0 -30 -4 -63 -7z"/>
<path d="M2036 3659 c9 -49 42 -98 69 -105 37 -9 60 -1 63 23 5 36 -16 62 -61
74 -23 7 -50 19 -60 27 -16 14 -17 13 -11 -19z"/>
<path d="M2712 3610 c-7 -12 -32 -29 -56 -39 -58 -26 -96 -72 -96 -121 0 -44
19 -63 62 -62 64 2 111 85 106 185 -3 52 -4 55 -16 37z"/>
<path d="M1622 3568 c5 -15 21 -38 35 -52 46 -46 123 -28 123 29 0 33 -31 47
-105 49 l-62 1 9 -27z"/>
<path d="M983 3574 c-18 -9 -43 -32 -54 -51 -12 -19 -35 -43 -51 -53 -33 -20
-27 -24 44 -35 59 -9 124 10 160 45 33 33 36 62 8 90 -24 24 -63 25 -107 4z"/>
<path d="M2410 3533 c0 -12 -5 -25 -11 -29 -20 -12 -48 -88 -42 -117 6 -30 45
-47 72 -30 39 24 37 125 -3 178 -15 20 -15 20 -16 -2z"/>
<path d="M3015 3529 c-16 -11 -37 -19 -45 -19 -74 -1 -160 -65 -160 -119 0
-93 112 -92 183 1 21 28 63 146 54 153 -1 1 -15 -6 -32 -16z"/>
<path d="M2012 3510 c-45 -11 -60 -26 -46 -48 24 -38 72 -19 88 36 8 24 8 24
-42 12z"/>
<path d="M1175 3436 c-13 -13 -27 -37 -31 -53 -3 -15 -13 -38 -21 -51 -14 -23
-14 -23 24 -16 51 9 87 31 107 64 20 35 20 44 0 64 -22 23 -51 20 -79 -8z"/>
<path d="M3263 3379 c-6 -6 -43 -13 -81 -14 -110 -5 -172 -44 -172 -107 0
-101 153 -84 225 26 19 28 37 63 41 79 7 29 4 33 -13 16z"/>
<path d="M768 3305 c-49 -26 -69 -45 -46 -45 7 0 38 -13 68 -30 95 -51 180
-35 180 35 0 46 -29 65 -100 65 -38 -1 -69 -8 -102 -25z"/>
<path d="M2682 3154 c-27 -19 -30 -88 -6 -137 17 -33 73 -97 85 -97 3 0 9 19
13 43 3 23 9 59 12 79 8 48 -1 83 -26 108 -24 24 -48 25 -78 4z"/>
<path d="M1239 3093 c-44 -38 -69 -96 -69 -167 l0 -59 23 21 c13 12 48 34 78
49 56 29 99 79 99 117 0 66 -73 88 -131 39z"/>
<path d="M2472 3098 c-16 -16 -15 -83 2 -116 8 -15 27 -40 44 -55 l29 -28 8
43 c13 69 11 134 -4 152 -16 19 -62 21 -79 4z"/>
<path d="M2909 3061 c-31 -25 -32 -108 -2 -167 19 -36 93 -114 109 -114 3 0 3
13 -1 29 -3 17 1 45 11 70 25 63 15 147 -20 178 -33 28 -66 29 -97 4z"/>
<path d="M1446 3020 c-34 -41 -49 -100 -41 -164 l7 -52 32 30 c18 17 49 43 69
59 74 56 69 157 -7 157 -26 0 -41 -8 -60 -30z"/>
<path d="M997 3010 c-48 -38 -64 -152 -32 -225 l17 -40 12 28 c7 16 25 37 40
47 37 24 76 94 76 135 0 24 -7 39 -26 54 -33 26 -54 26 -87 1z"/>
</g>
</svg>
